HIERARCHY
ROOT Hips
{
  OFFSET 6.32866 101.181 192.99
  CHANNELS 6 Xposition Yposition Zposition Zrotation Xrotation Yrotation
  JOINT RightUpLeg
  {
    OFFSET -8.9458 -8.66707 0.101652
    CHANNELS 3 Zrotation Xrotation Yrotation
    JOINT RightLeg
    {
      OFFSET 0 -44.4227 1.3727
      CHANNELS 3 Zrotation Xrotation Yrotation
      JOINT RightFoot
      {
        OFFSET 0.253549 -42.0924 -1.46059
        CHANNELS 3 Zrotation Xrotation Yrotation
        JOINT RightToes
        {
          OFFSET 0.04 -4.41509 8.4991
          CHANNELS 3 Zrotation Xrotation Yrotation
          End Site
          {
            OFFSET -0.08 -0.137448 9.77979
          }
        }
      }
    }
  }
  JOINT Spine
  {
    OFFSET 0 11.8905 0
    CHANNELS 3 Zrotation Xrotation Yrotation
    JOINT Spine1
    {
      OFFSET 0 25.6574 0.127663
      CHANNELS 3 Zrotation Xrotation Yrotation
      JOINT HEad
      {
        OFFSET 0 8.73416 0.011341
        CHANNELS 3 Zrotation Xrotation Yrotation
        End Site
        {
          OFFSET -0.29 12.7742 2.51395
        }
      }
      JOINT LeftShoulder1
      {
        OFFSET 8.99 -0.362252 -0.22
        CHANNELS 3 Zrotation Xrotation Yrotation
        JOINT LeftArm
        {
          OFFSET 10.2827 -0.00338 0.322123
          CHANNELS 3 Zrotation Xrotation Yrotation
          JOINT LeftForeArm
          {
            OFFSET 32.7669 0.099144 -1.42434
            CHANNELS 3 Zrotation Xrotation Yrotation
            JOINT LeftHand
            {
              OFFSET 27.5643 0.085362 1.02216
              CHANNELS 3 Zrotation Xrotation Yrotation
              End Site
              {
                OFFSET 16.7443 -0.6 1.50291
              }
            }
          }
        }
      }
      JOINT RightShoulder
      {
        OFFSET -8.99 -0.362252 -0.22
        CHANNELS 3 Zrotation Xrotation Yrotation
        JOINT RightArm
        {
          OFFSET -10.2827 -0.00338 0.322123
          CHANNELS 3 Zrotation Xrotation Yrotation
          JOINT RightForeArm
          {
            OFFSET -32.8971 0.099144 -1.42434
            CHANNELS 3 Zrotation Xrotation Yrotation
            JOINT RightHand
            {
              OFFSET -27.4921 0.085362 1.02216
              CHANNELS 3 Zrotation Xrotation Yrotation
              End Site
              {
                OFFSET -16.6312 -0.6 1.50291
              }
            }
          }
        }
      }
    }
  }
  JOINT LeftUpLeg
  {
    OFFSET 8.9458 -8.66707 0.101652
    CHANNELS 3 Zrotation Xrotation Yrotation
    JOINT LeftLeg
    {
      OFFSET 0 -44.4227 1.3727
      CHANNELS 3 Zrotation Xrotation Yrotation
      JOINT LeftFoot
      {
        OFFSET -0.253549 -42.0924 -1.46059
        CHANNELS 3 Zrotation Xrotation Yrotation
        JOINT LeftToes
        {
          OFFSET -0.04 -4.41509 8.4991
          CHANNELS 3 Zrotation Xrotation Yrotation
          End Site
          {
            OFFSET 0.08 -0.047448 9.77979
          }
        }
      }
    }
  }
}
MOTION
Frames:	10
Frame Time:	0.0166667
18.9587 99.6661 30.0788 -5.45542 2.79219 169.519 -6.78679 -4.50638 -11.555 -20.4469 54.8679 20.2312 8.56886 12.4072 -1.21455 -16.859 7.64981 33.6789 0.765477 2.81593 -1.21889 -5.87695 -2.97814 -0.278249 -0.417202 -0.598708 11.7198 4.96962e-017 -3.97569e-016 1.59028e-015 -50.1494 -58.3292 37.6912 -22.5061 13.2464 -7.91494 0.368473 9.90896 -0.00117925 -14.6153 -0.978261 18.7946 107.894 -19.6684 21.1026 18.594 17.1152 27.505 -0.369625 9.91382 0.00119887 -7.88373 -19.4263 -2.9201 -6.46184 18.5094 24.0031 -3.55875 1.61948 0.2165 -27.0697 7.15988 16.9366 
18.8513 99.5957 28.2948 -6.37552 2.86799 169.59 -7.73648 -7.43981 -11.7504 -25.9389 57.7586 27.0602 8.29906 16.9296 -1.52444 -16.7613 13.6756 29.9394 -0.0782599 3.00988 -1.32747 -6.94528 -2.92543 -0.271783 0.237251 -0.744581 11.9613 4.96962e-017 1.98785e-016 -0 -51.8205 -58.547 35.5188 -22.2309 13.2987 -8.20979 0.368473 9.90896 -0.00117925 -14.2287 -0.885306 18.41 108.03 -20.0695 20.3366 18.586 16.6494 25.028 -0.369625 9.91382 0.00119887 -9.04762 -18.8276 -2.77037 -6.80089 19.4519 23.7506 -3.52605 0.143758 0.173071 -27.0039 6.49879 16.5764 
18.7076 99.7358 26.5687 -6.69501 2.65835 169.588 -7.68116 -10.5672 -9.82467 -28.8816 60.8357 28.8666 8.45261 20.0285 -1.77043 -15.1312 16.5916 25.1583 -0.591308 3.08876 -1.31596 -7.15189 -3.00978 -0.268499 0.241262 -1.00593 11.8469 2.48481e-017 0 -0 -54.4867 -58.3118 32.5923 -22.1826 13.3656 -8.58169 0.368473 9.90896 -0.00117925 -13.8453 -0.795786 18.0029 107.814 -20.8484 19.4347 18.5738 16.2179 22.6703 -0.369625 9.91382 0.00119887 -9.53399 -18.0807 -3.00548 -7.13676 19.5957 24.1075 -3.48206 -0.972395 0.143354 -26.5218 6.01979 16.0578 
18.5805 99.9552 24.9032 -6.71799 2.31642 169.506 -6.91903 -13.7922 -7.12717 -30.4282 63.8972 28.2916 8.08826 21.3393 -1.79926 -12.1863 17.4649 19.2922 -0.934923 3.12824 -1.25586 -6.98536 -3.10437 -0.264902 0.0844725 -1.36713 11.6877 -1.98785e-016 -4.96962e-016 -0 -57.6901 -57.819 29.1634 -22.256 13.4614 -9.08798 0.368473 9.90896 -0.00117925 -13.4625 -0.709391 17.6138 107.437 -21.73 18.4689 18.5792 15.8265 20.5241 -0.369625 9.91382 0.00119887 -9.63999 -17.2858 -3.09549 -7.38523 19.4229 24.3988 -3.505 -1.93415 0.11735 -25.9096 5.79542 15.5838 
18.5315 100.18 23.2992 -6.6145 1.90908 169.2 -5.85111 -17.043 -4.41649 -31.5645 66.6794 26.66 6.2119 19.8417 -1.34027 -8.83011 16.428 13.5581 -1.11179 3.17472 -1.21209 -6.77325 -3.20599 -0.265156 0.164524 -1.80685 11.8587 -2.48481e-017 4.96962e-017 -0 -60.9696 -57.211 25.5319 -22.4735 13.5973 -9.74588 0.368473 9.90896 -0.00117925 -13.1768 -0.646177 17.5172 107.132 -22.3892 17.4578 18.7017 15.5408 18.8866 -0.369625 9.91382 0.00119887 -9.51042 -16.5902 -2.36779 -7.39619 19.3711 23.8695 -3.73173 -2.91148 0.0892995 -25.39 6.31071 15.5264 
18.5157 100.407 21.7142 -6.43562 1.53191 169.122 -4.5897 -20.044 -2.21779 -31.9165 68.8192 24.1159 3.98557 16.9614 -0.783327 -5.6195 14.219 8.01861 -1.22286 3.21761 -1.18552 -6.61916 -3.20291 -0.260326 0.376747 -2.26212 11.8438 -9.00743e-017 -3.72721e-017 -1.59028e-015 -64.5322 -56.4863 21.3812 -22.5083 13.7351 -10.4463 0.368473 9.90896 -0.00117925 -12.6077 -0.536962 17.1267 106.612 -23.3288 16.3865 18.7419 15.2706 17.342 -0.369625 9.91382 0.00119887 -9.36441 -15.7925 -1.79907 -7.34662 19.2414 23.235 -4.04303 -3.8446 0.0597017 -25.2044 6.61761 15.5641 
18.5101 100.615 20.0842 -6.28133 1.32508 169.873 -3.73824 -22.4461 -1.77644 -32.6905 69.7814 22.3904 2.24307 13.7071 -0.43661 -2.56556 11.9777 2.55513 -1.3719 3.25745 -1.2123 -6.81978 -2.96181 -0.242842 0.791069 -2.63077 11.0515 -0 0 3.18055e-015 -68.433 -55.7719 16.3324 -21.8236 13.8171 -10.9944 0.368473 9.90896 -0.00117925 -11.1249 -0.262557 15.7123 105.466 -25.2586 15.2251 18.3777 14.8757 15.4229 -0.369625 9.91382 0.00119887 -9.46101 -14.6778 -2.43013 -7.40838 18.9334 23.1073 -4.38567 -4.7141 0.026659 -25.8421 5.55348 15.418 
18.5108 100.788 18.475 -6.13717 1.21414 170.863 -3.14003 -24.5167 -2.013 -33.0164 69.9097 20.7211 0.783605 10.3229 -0.199973 -0.302561 9.45382 -1.67155 -1.55291 3.30714 -1.25153 -7.12382 -2.54432 -0.212816 1.23129 -3.01811 10.0784 2.48481e-017 3.97569e-016 -0 -72.6038 -54.6304 10.8899 -21.0822 13.9186 -11.662 0.368473 9.90896 -0.00117925 -9.53708 0.0186085 13.981 104.142 -27.2671 14.0143 17.98 14.4877 13.6061 -0.369625 9.91382 0.00119887 -9.62818 -13.4574 -3.34337 -7.43416 18.6117 23.041 -4.69886 -5.5689 -0.00839902 -26.7951 4.24235 15.3359 
18.5004 100.883 16.9592 -6.06457 1.20421 171.574 -2.57718 -26.4313 -2.06778 -32.2452 69.3722 18.8598 -0.384401 7.4242 -0.0862656 0.708824 6.56181 -3.21464 -1.82721 3.39953 -1.26638 -7.37256 -1.8977 -0.161055 1.49417 -3.56263 9.48699 1.14301e-015 3.97569e-016 -3.18055e-015 -76.9793 -52.6244 5.52219 -20.9474 14.1162 -12.7543 0.368473 9.90896 -0.00117925 -8.70421 0.142672 12.5135 103.252 -28.4334 12.8817 17.8777 14.234 12.2684 -0.369625 9.91382 0.00119887 -9.88111 -12.2962 -3.86734 -7.3201 18.4509 22.7582 -4.87693 -6.49374 -0.0456864 -27.8237 3.56194 15.5892 
18.4959 100.959 15.4531 -5.96621 1.20383 172.386 -2.12598 -28.0842 -2.3167 -30.5434 68.1119 16.7305 -1.11932 4.90488 -0.0514121 1.04408 4.03244 -3.26656 -2.0969 3.47537 -1.28078 -7.58644 -1.23172 -0.107966 1.76488 -4.05874 8.79017 5.96354e-016 -3.97569e-016 -3.18055e-015 -80.9338 -50.1547 0.559011 -20.8567 14.3299 -13.9826 0.368473 9.90896 -0.00117925 -7.92491 0.219868 10.9551 102.183 -29.4306 11.5664 17.9718 14.0521 11.2183 -0.369625 9.91382 0.00119887 -10.1197 -11.1266 -4.35742 -7.11972 18.3084 22.3675 -5.00142 -7.36173 -0.0821892 -28.557 3.1027 15.7772 
